 <svg
      width="151"
      height="85"
      viewBox="0 0 151 85"
      fill="none"
      xmlns="http://www.w3.org/2000/svg"
    >
      <path
        d="M10.9773 56.9255V71.8574H2.64205V36.9483H10.7045V50.4824H10.9943C11.5852 48.8687 12.5511 47.6074 13.892 46.6983C15.2443 45.7892 16.8977 45.3346 18.8523 45.3346C20.6932 45.3346 22.2955 45.7437 23.6591 46.5619C25.0227 47.3687 26.0795 48.5108 26.8295 49.988C27.5909 51.4653 27.9659 53.1926 27.9545 55.1699V71.8574H19.6193V56.8062C19.6307 55.3517 19.267 54.2153 18.5284 53.3971C17.7898 52.579 16.75 52.1699 15.4091 52.1699C14.5341 52.1699 13.7614 52.363 13.0909 52.7494C12.4318 53.1244 11.9148 53.6642 11.5398 54.3687C11.1761 55.0733 10.9886 55.9255 10.9773 56.9255ZM40.5384 72.3005C38.8679 72.3005 37.3849 72.0221 36.0895 71.4653C34.8054 70.8971 33.7884 70.0449 33.0384 68.9085C32.2997 67.7608 31.9304 66.3233 31.9304 64.596C31.9304 63.1415 32.1861 61.9142 32.6974 60.9142C33.2088 59.9142 33.9134 59.1017 34.8111 58.4767C35.7088 57.8517 36.7429 57.3801 37.9134 57.0619C39.0838 56.7324 40.3338 56.5108 41.6634 56.3971C43.152 56.2608 44.3509 56.1187 45.2599 55.971C46.169 55.8119 46.8281 55.5903 47.2372 55.3062C47.6577 55.0108 47.8679 54.596 47.8679 54.0619V53.9767C47.8679 53.1017 47.5668 52.4255 46.9645 51.9483C46.3622 51.471 45.5497 51.2324 44.527 51.2324C43.4247 51.2324 42.5384 51.471 41.8679 51.9483C41.1974 52.4255 40.7713 53.0846 40.5895 53.9255L32.902 53.6528C33.1293 52.0619 33.7145 50.6415 34.6577 49.3915C35.6122 48.1301 36.919 47.1415 38.5781 46.4255C40.2486 45.6983 42.2543 45.3346 44.5952 45.3346C46.2656 45.3346 47.8054 45.5335 49.2145 45.9312C50.6236 46.3176 51.8509 46.8858 52.8963 47.6358C53.9418 48.3744 54.7486 49.2835 55.3168 50.363C55.8963 51.4426 56.1861 52.6755 56.1861 54.0619V71.8574H48.3452V68.2096H48.1406C47.6747 69.096 47.0781 69.846 46.3509 70.4596C45.6349 71.0733 44.7884 71.5335 43.8111 71.8403C42.8452 72.1471 41.7543 72.3005 40.5384 72.3005ZM43.1122 66.846C44.0099 66.846 44.8168 66.6642 45.5327 66.3005C46.2599 65.9369 46.8395 65.4369 47.2713 64.8005C47.7031 64.1528 47.919 63.4028 47.919 62.5505V60.0619C47.6804 60.1869 47.3906 60.3005 47.0497 60.4028C46.7202 60.5051 46.3565 60.6017 45.9588 60.6926C45.5611 60.7835 45.152 60.863 44.7315 60.9312C44.3111 60.9994 43.9077 61.0619 43.5213 61.1187C42.7372 61.2437 42.0668 61.4369 41.5099 61.6983C40.9645 61.9596 40.544 62.3005 40.2486 62.721C39.9645 63.1301 39.8224 63.6187 39.8224 64.1869C39.8224 65.0505 40.1293 65.7096 40.7429 66.1642C41.3679 66.6187 42.1577 66.846 43.1122 66.846ZM61.2827 71.8574V36.9483H69.6179V50.1585H69.7884C70.1293 49.363 70.6122 48.596 71.2372 47.8574C71.8736 47.1187 72.6804 46.5165 73.6577 46.0505C74.6463 45.5733 75.8281 45.3346 77.2031 45.3346C79.0213 45.3346 80.7202 45.8119 82.2997 46.7664C83.8906 47.721 85.1747 49.1926 86.152 51.1812C87.1293 53.1699 87.6179 55.704 87.6179 58.7835C87.6179 61.7494 87.1463 64.2324 86.2031 66.2324C85.2713 68.2324 84.0099 69.7324 82.419 70.7324C80.8395 71.7324 79.0838 72.2324 77.152 72.2324C75.8338 72.2324 74.6918 72.0165 73.7259 71.5846C72.7599 71.1528 71.9474 70.5846 71.2884 69.8801C70.6406 69.1755 70.1406 68.4199 69.7884 67.613H69.5327V71.8574H61.2827ZM69.4474 58.7665C69.4474 60.1755 69.6349 61.4028 70.0099 62.4483C70.3963 63.4937 70.9474 64.3062 71.6634 64.8858C72.3906 65.454 73.2599 65.738 74.2713 65.738C75.294 65.738 76.1634 65.454 76.8793 64.8858C77.5952 64.3062 78.1349 63.4937 78.4986 62.4483C78.8736 61.4028 79.0611 60.1755 79.0611 58.7665C79.0611 57.3574 78.8736 56.1358 78.4986 55.1017C78.1349 54.0676 77.5952 53.2665 76.8793 52.6983C76.1747 52.1301 75.3054 51.846 74.2713 51.846C73.2486 51.846 72.3793 52.1244 71.6634 52.6812C70.9474 53.238 70.3963 54.0335 70.0099 55.0676C69.6349 56.1017 69.4474 57.3346 69.4474 58.7665ZM91.9858 71.8574V45.6755H100.321V71.8574H91.9858ZM96.1619 42.6244C94.9915 42.6244 93.9858 42.238 93.1449 41.4653C92.304 40.6812 91.8835 39.738 91.8835 38.6358C91.8835 37.5449 92.304 36.613 93.1449 35.8403C93.9858 35.0562 94.9915 34.6642 96.1619 34.6642C97.3438 34.6642 98.3494 35.0562 99.179 35.8403C100.02 36.613 100.44 37.5449 100.44 38.6358C100.44 39.738 100.02 40.6812 99.179 41.4653C98.3494 42.238 97.3438 42.6244 96.1619 42.6244ZM120.405 45.6755V51.8119H103.888V45.6755H120.405ZM107.348 39.4028H115.683V63.6244C115.683 64.1358 115.763 64.5505 115.922 64.8687C116.092 65.1755 116.337 65.3971 116.655 65.5335C116.973 65.6585 117.354 65.721 117.797 65.721C118.115 65.721 118.45 65.6926 118.803 65.6358C119.166 65.5676 119.439 65.5108 119.621 65.4653L120.882 71.4824C120.484 71.596 119.922 71.738 119.195 71.9085C118.479 72.079 117.621 72.1869 116.621 72.2324C114.666 72.3233 112.99 72.096 111.592 71.5505C110.206 70.9937 109.143 70.1301 108.405 68.9596C107.678 67.7892 107.325 66.3176 107.348 64.5449V39.4028ZM147.188 53.6699L139.534 53.8744C139.455 53.329 139.239 52.846 138.886 52.4255C138.534 51.9937 138.074 51.6585 137.506 51.4199C136.949 51.1699 136.301 51.0449 135.562 51.0449C134.597 51.0449 133.773 51.238 133.091 51.6244C132.42 52.0108 132.091 52.5335 132.102 53.1926C132.091 53.704 132.295 54.1471 132.716 54.5221C133.148 54.8971 133.915 55.1983 135.017 55.4255L140.062 56.3801C142.676 56.8801 144.619 57.7096 145.892 58.8687C147.176 60.0278 147.824 61.5619 147.835 63.471C147.824 65.2665 147.29 66.829 146.233 68.1585C145.188 69.488 143.756 70.5221 141.938 71.2608C140.119 71.988 138.04 72.3517 135.699 72.3517C131.96 72.3517 129.011 71.5846 126.852 70.0505C124.705 68.5051 123.477 66.4369 123.17 63.846L131.403 63.6415C131.585 64.596 132.057 65.3233 132.818 65.8233C133.58 66.3233 134.551 66.5733 135.733 66.5733C136.801 66.5733 137.67 66.3744 138.341 65.9767C139.011 65.579 139.352 65.0505 139.364 64.3915C139.352 63.8005 139.091 63.329 138.58 62.9767C138.068 62.613 137.267 62.329 136.176 62.1244L131.608 61.2551C128.983 60.7778 127.028 59.8971 125.744 58.613C124.46 57.3176 123.824 55.6699 123.835 53.6699C123.824 51.9199 124.29 50.4255 125.233 49.1869C126.176 47.9369 127.517 46.9824 129.256 46.3233C130.994 45.6642 133.045 45.3346 135.409 45.3346C138.955 45.3346 141.75 46.079 143.795 47.5676C145.841 49.0449 146.972 51.079 147.188 53.6699Z"
        fill="white"
      />
      <rect
        x="0.5"
        y="1.35736"
        width="15"
        height="15"
        rx="3.5"
        fill="#18181B"
        stroke="#27272A"
      />
      <rect
        x="20.5"
        y="1.35736"
        width="15"
        height="15"
        rx="3.5"
        fill="#4C1D95"
        stroke="#6D28D9"
      />
      <rect
        x="40.5"
        y="1.35736"
        width="15"
        height="15"
        rx="3.5"
        fill="#5B21B6"
        stroke="#7C3AED"
      />
      <rect
        x="60.5"
        y="1.35736"
        width="15"
        height="15"
        rx="3.5"
        fill="#6D28D9"
        stroke="#8B5CF6"
      />
      <rect
        x="80.5"
        y="1.35736"
        width="15"
        height="15"
        rx="3.5"
        fill="#7C3AED"
        stroke="#A78BFA"
      />
      <rect
        x="100.5"
        y="1.35736"
        width="15"
        height="15"
        rx="3.5"
        fill="#8B5CF6"
        stroke="#C4B5FD"
      />
    </svg>